<svg xmlns="http://www.w3.org/2000/svg" viewBox="0 0 32 32" id="pencil">
  <path fill="#f5bdaf" d="M29.5,26.668l-2.83,2.83a2,2,0,0,1-2.83,0L5.448,11.108l-2.29-5.97-1.24-3.22,3.23,1.24,5.96,2.29L29.5,23.838A2,2,0,0,1,29.5,26.668Z"></path>
  <polygon fill="#57565e" points="20.218 25.878 21.638 24.468 24.468 21.638 25.878 20.218 27.368 21.718 25.958 23.128 23.128 25.958 21.718 27.368 20.218 25.878"></polygon>
  <path fill="#ed4569" d="M29.5,26.668l-2.83,2.83a2,2,0,0,1-2.83,0l-2.12-2.13,1.41-1.41,2.83-2.83,1.41-1.41,2.13,2.12A2,2,0,0,1,29.5,26.668Z"></path>
  <path fill="#e13442" d="M25.878 20.218l-1.41 1.42L11.7 8.868a2.006 2.006 0 0 1-.59-1.42v-2zM21.638 24.468l-1.4 1.432L5.448 11.108h2a2.006 2.006 0 0 1 1.42.59z"></path>
  <path fill="#e0e0e2" d="M24.312,23.812h4a2,2,0,0,1,2,2v3a0,0,0,0,1,0,0h-8a0,0,0,0,1,0,0v-3A2,2,0,0,1,24.312,23.812Z" transform="rotate(135 26.312 26.312)"></path>
  <path fill="#57565e" d="M5.148,3.158v.01a3.191,3.191,0,0,1-1.99,1.97l-1.24-3.22Z"></path>
  <path fill="#ed4569" d="M24.468,21.638,11.7,8.868a2.006,2.006,0,0,0-1.42-.59h-1a1,1,0,0,0-1,1v1a2.006,2.006,0,0,0,.59,1.42l12.77,12.77Z"></path>
  <path d="M29.848,23.483l-3.61-3.61-.006-.009-.009-.006L11.463,5.1A.5.5,0,0,0,11.3,4.99l-.007,0L2.1,1.45A.5.5,0,0,0,1.45,2.1l3.535,9.192,0,.007a.5.5,0,0,0,.109.168l14.76,14.76.006.009.009.006,3.61,3.61a2.5,2.5,0,0,0,3.536,0l2.829-2.829A2.5,2.5,0,0,0,29.848,23.483ZM11.609,6.659,25.17,20.22l-.707.707L12.048,8.51a1.487,1.487,0,0,1-.439-1.061Zm-.264,2.563L23.756,21.633l-2.123,2.123L9.219,11.342a1.5,1.5,0,0,1-.441-1.064v-1a.5.5,0,0,1,.5-.5h1A1.5,1.5,0,0,1,11.345,9.222ZM2.788,2.788l1.677.645A2.662,2.662,0,0,1,3.431,4.46Zm1,2.6a3.654,3.654,0,0,0,1.607-1.6L10.609,5.8V7.449a2.515,2.515,0,0,0,.036.365,2.511,2.511,0,0,0-.366-.036h-1a1.5,1.5,0,0,0-1.5,1.5v1a2.511,2.511,0,0,0,.036.366,2.515,2.515,0,0,0-.365-.036H5.8ZM20.22,25.17,6.659,11.609h.791a1.489,1.489,0,0,1,1.062.439L20.926,24.463Zm.707.707,1.036-1.036c.009-.008.02-.011.029-.019s.011-.02.019-.029l2.782-2.782c.009-.008.02-.011.029-.019s.011-.02.019-.029l1.036-1.036.789.789-4.95,4.95Zm8.214.435-2.829,2.829a1.5,1.5,0,0,1-2.122,0l-1.768-1.768,4.95-4.95,1.768,1.768A1.5,1.5,0,0,1,29.141,26.312Z"></path>
</svg>